<svg width="73" height="337" viewBox="0 0 73 337" fill="none" xmlns="http://www.w3.org/2000/svg">
<path d="M71 284.422L71.2914 285.378L72 285.163L72 284.422L71 284.422ZM54.6875 289.391L54.3961 288.434L53.6875 288.65L53.6875 289.391L54.6875 289.391ZM54.6875 314.375L53.6875 314.375L53.6875 315.116L54.3961 315.332L54.6875 314.375ZM71 319.344L72 319.344L72 318.603L71.2914 318.387L71 319.344ZM71 335L70.6684 335.943L72 336.411L72 335L71 335ZM2.1875 310.813L1.1875 310.813L1.1875 311.521L1.85589 311.756L2.1875 310.813ZM2.1875 293.047L1.85475 292.104L1.1875 292.339L1.1875 293.047L2.1875 293.047ZM71 268.766L72 268.766L72 267.352L70.6672 267.823L71 268.766ZM42.5 292.859L43.5 292.859L43.5 291.501L42.2032 291.904L42.5 292.859ZM17.4219 300.641L17.7007 301.601L17.7078 301.599L17.7149 301.597L17.4219 300.641ZM12.8281 301.859L12.6112 300.883L12.5785 302.828L12.8281 301.859ZM42.5 310.719L42.2048 311.674L43.5 312.074L43.5 310.719L42.5 310.719ZM70.7086 283.465L54.3961 288.434L54.9789 290.347L71.2914 285.378L70.7086 283.465ZM53.6875 289.391L53.6875 314.375L55.6875 314.375L55.6875 289.391L53.6875 289.391ZM54.3961 315.332L70.7086 320.3L71.2914 318.387L54.9789 313.418L54.3961 315.332ZM70 319.344L70 335L72 335L72 319.344L70 319.344ZM71.3316 334.057L2.51911 309.869L1.85589 311.756L70.6684 335.943L71.3316 334.057ZM3.1875 310.813L3.1875 293.047L1.1875 293.047L1.1875 310.813L3.1875 310.813ZM2.52025 293.99L71.3328 269.709L70.6672 267.823L1.85475 292.104L2.52025 293.99ZM70 268.766L70 284.422L72 284.422L72 268.766L70 268.766ZM42.2032 291.904C27.4206 296.499 19.0639 299.092 17.1289 299.685L17.7149 301.597C19.6548 301.002 28.0169 298.408 42.7968 293.814L42.2032 291.904ZM17.1431 299.68C15.2133 300.241 13.7056 300.64 12.6112 300.883L13.0451 302.836C14.2007 302.579 15.7554 302.166 17.7007 301.601L17.1431 299.68ZM12.5785 302.828C16.5504 303.852 26.4152 306.797 42.2048 311.674L42.7952 309.763C27.0223 304.891 17.1059 301.93 13.0778 300.891L12.5785 302.828ZM43.5 310.719L43.5 292.859L41.5 292.859L41.5 310.719L43.5 310.719ZM2.46875 260.094L1.46875 260.094L1.46875 261.094L2.46875 261.094L2.46875 260.094ZM6.64063 217.625L7.48456 218.162L7.48896 218.154L6.64063 217.625ZM29.8906 213.922L29.2968 214.726L29.303 214.731L29.8906 213.922ZM34.625 221.563L33.6386 221.727L33.7779 222.563L34.625 222.563L34.625 221.563ZM35.0938 221.563L35.0938 222.563L35.8953 222.563L36.0698 221.78L35.0938 221.563ZM40.5313 212.188L41.1143 213L41.1206 212.995L40.5313 212.188ZM65.75 216.078L64.9586 216.689L64.9606 216.692L65.75 216.078ZM71 260.094L71 261.094L72 261.094L72 260.094L71 260.094ZM29.6094 245.563L29.6094 246.563L30.6094 246.563L30.6094 245.563L29.6094 245.563ZM27.7813 228.594L26.9559 229.158L26.9606 229.165L27.7813 228.594ZM16.1094 228.828L16.9644 229.347L16.9694 229.339L16.9742 229.33L16.1094 228.828ZM14.375 245.563L13.375 245.563L13.375 246.563L14.375 246.563L14.375 245.563ZM41.1406 245.563L40.1406 245.563L40.1406 246.563L41.1406 246.563L41.1406 245.563ZM59 245.563L59 246.563L60 246.563L60 245.563L59 245.563ZM3.46875 260.094L3.46875 238.766L1.46875 238.766L1.46875 260.094L3.46875 260.094ZM3.46875 238.766C3.46875 229.096 4.86095 222.288 7.48454 218.161L5.79672 217.089C2.8578 221.712 1.46875 228.998 1.46875 238.766L3.46875 238.766ZM7.48896 218.154C10.0242 214.092 14.0609 212.016 19.8125 212.016L19.8125 210.016C13.5016 210.016 8.75709 212.345 5.79229 217.096L7.48896 218.154ZM19.8125 212.016C23.7476 212.016 26.8833 212.945 29.2968 214.726L30.4845 213.117C27.6479 211.024 24.0649 210.016 19.8125 210.016L19.8125 212.016ZM29.303 214.731C31.7166 216.484 33.1507 218.799 33.6386 221.727L35.6114 221.398C35.0368 217.951 33.3147 215.173 30.4782 213.113L29.303 214.731ZM34.625 222.563L35.0938 222.563L35.0938 220.563L34.625 220.563L34.625 222.563ZM36.0698 221.78C37.0045 217.589 38.72 214.718 41.1143 213L39.9482 211.375C37.03 213.469 35.1205 216.849 34.1177 221.345L36.0698 221.78ZM41.1206 212.995C43.5559 211.219 46.8594 210.281 51.125 210.281L51.125 208.281C46.5781 208.281 42.8191 209.281 39.9419 211.38L41.1206 212.995ZM51.125 210.281C57.0979 210.281 61.6671 212.428 64.9586 216.689L66.5414 215.467C62.8329 210.666 57.6521 208.281 51.125 208.281L51.125 210.281ZM64.9606 216.692C68.2824 220.963 70 226.846 70 234.453L72 234.453C72 226.56 70.2176 220.193 66.5394 215.464L64.9606 216.692ZM70 234.453L70 260.094L72 260.094L72 234.453L70 234.453ZM71 259.094L2.46875 259.094L2.46875 261.094L71 261.094L71 259.094ZM30.6094 245.563L30.6094 237.125L28.6094 237.125L28.6094 245.563L30.6094 245.563ZM30.6094 237.125C30.6094 233.132 30.0006 230.031 28.6019 228.022L26.9606 229.165C27.9994 230.657 28.6094 233.243 28.6094 237.125L30.6094 237.125ZM28.6066 228.029C27.1463 225.895 24.7657 224.922 21.7344 224.922L21.7344 226.922C24.328 226.922 25.9787 227.73 26.9559 229.158L28.6066 228.029ZM21.7344 224.922C18.8257 224.922 16.5823 226.022 15.2446 228.326L16.9742 229.33C17.8865 227.759 19.3931 226.922 21.7344 226.922L21.7344 224.922ZM15.2544 228.31C13.952 230.457 13.375 233.717 13.375 237.922L15.375 237.922C15.375 233.815 15.9542 231.012 16.9644 229.347L15.2544 228.31ZM13.375 237.922L13.375 245.563L15.375 245.563L15.375 237.922L13.375 237.922ZM14.375 246.563L29.6094 246.563L29.6094 244.563L14.375 244.563L14.375 246.563ZM41.1406 246.563L59 246.563L59 244.563L41.1406 244.563L41.1406 246.563ZM60 245.563L60 236.094L58 236.094L58 245.563L60 245.563ZM60 236.094C60 232 59.2225 228.774 57.4827 226.608L55.9235 227.861C57.2463 229.507 58 232.188 58 236.094L60 236.094ZM57.4827 226.608C55.709 224.4 53.0357 223.375 49.6719 223.375L49.6719 225.375C52.6206 225.375 54.6348 226.256 55.9235 227.861L57.4827 226.608ZM49.6719 223.375C46.5572 223.375 44.0929 224.507 42.4542 226.848C40.8611 229.124 40.1406 232.414 40.1406 236.563L42.1406 236.563C42.1406 232.586 42.8421 229.782 44.0927 227.995C45.2978 226.274 47.0991 225.375 49.6719 225.375L49.6719 223.375ZM40.1406 236.563L40.1406 245.563L42.1406 245.563L42.1406 236.563L40.1406 236.563ZM10.4375 190.203L9.75343 190.933L9.75356 190.933L10.4375 190.203ZM10.4844 141.781L11.1604 142.518L11.1625 142.516L10.4844 141.781ZM19.3438 179L19.9479 178.203L19.9448 178.201L19.3438 179ZM36.6406 134.391C47.8265 134.391 56.2684 137.163 62.1186 142.563L63.4752 141.093C57.1379 135.244 48.1422 132.391 36.6406 132.391L36.6406 134.391ZM62.1186 142.563C67.9556 147.951 70.9375 155.716 70.9375 166.016L72.9375 166.016C72.9375 155.316 69.8257 146.955 63.4752 141.093L62.1186 142.563ZM70.9375 166.016C70.9375 176.316 67.9556 184.08 62.1186 189.468L63.4752 190.938C69.8257 185.076 72.9375 176.716 72.9375 166.016L70.9375 166.016ZM62.1186 189.468C56.2693 194.868 47.797 197.641 36.5469 197.641L36.5469 199.641C48.1093 199.641 57.1369 196.789 63.4752 190.938L62.1186 189.468ZM36.5469 197.641C25.2955 197.641 16.8746 194.867 11.1214 189.474L9.75356 190.933C16.0004 196.789 24.9857 199.641 36.5469 199.641L36.5469 197.641ZM11.1216 189.474C5.34375 184.055 2.39063 176.257 2.39063 165.922L0.390627 165.922C0.390627 176.649 3.46875 185.039 9.75343 190.933L11.1216 189.474ZM2.39063 165.922C2.39063 155.587 5.35867 147.841 11.1604 142.518L9.80831 141.044C3.48508 146.846 0.390627 155.194 0.390627 165.922L2.39063 165.922ZM11.1625 142.516C16.9801 137.148 25.4209 134.391 36.6406 134.391L36.6406 132.391C25.1104 132.391 16.1136 135.227 9.80625 141.046L11.1625 142.516ZM36.6406 184.406C44.3963 184.406 50.4148 182.939 54.5375 179.847L53.3375 178.247C49.7102 180.967 44.1974 182.406 36.6406 182.406L36.6406 184.406ZM54.5375 179.847C58.7146 176.714 60.75 172.043 60.75 166.016L58.75 166.016C58.75 171.551 56.9104 175.567 53.3375 178.247L54.5375 179.847ZM60.75 166.016C60.75 159.976 58.7286 155.3 54.574 152.174C50.4728 149.087 44.4404 147.625 36.6406 147.625L36.6406 149.625C44.2471 149.625 49.7694 151.061 53.3714 153.772C56.9198 156.442 58.75 160.461 58.75 166.016L60.75 166.016ZM36.6406 147.625C28.8264 147.625 22.7835 149.079 18.675 152.148C14.5117 155.258 12.4844 159.911 12.4844 165.922L14.4844 165.922C14.4844 160.402 16.3164 156.406 19.8719 153.75C23.4821 151.054 29.0174 149.625 36.6406 149.625L36.6406 147.625ZM12.4844 165.922C12.4844 171.953 14.5376 176.637 18.7427 179.799L19.9448 178.201C16.3374 175.488 14.4844 171.454 14.4844 165.922L12.4844 165.922ZM18.7396 179.797C22.863 182.923 28.8832 184.406 36.6406 184.406L36.6406 182.406C29.0855 182.406 23.5745 180.952 19.9479 178.203L18.7396 179.797ZM2.46875 63.4063L2.46875 62.4063L1.46875 62.4063L1.46875 63.4063L2.46875 63.4063ZM60.125 66.8281L59.6115 67.6862L59.6167 67.6893L60.125 66.8281ZM65.1875 112.344L65.92 113.025L65.9223 113.022L65.1875 112.344ZM2.46875 119.656L1.46875 119.656L1.46875 120.656L2.46875 120.656L2.46875 119.656ZM2.46875 105.172L2.46875 104.172L1.46875 104.172L1.46875 105.172L2.46875 105.172ZM56.0469 81.125L55.3937 81.8822L55.3945 81.8829L56.0469 81.125ZM2.46875 77.8906L1.46875 77.8906L1.46875 78.8906L2.46875 78.8906L2.46875 77.8906ZM2.46875 64.4063L46.8125 64.4063L46.8125 62.4063L2.46875 62.4063L2.46875 64.4063ZM46.8125 64.4063C51.7199 64.4063 55.9749 65.5102 59.6115 67.6862L60.6385 65.97C56.6501 63.5835 52.0301 62.4063 46.8125 62.4063L46.8125 64.4063ZM59.6167 67.6893C63.245 69.8306 66.0352 72.9395 67.9872 77.0537L69.7941 76.1964C67.6836 71.748 64.63 68.3257 60.6333 65.9669L59.6167 67.6893ZM67.9872 77.0537C69.9418 81.1734 70.9375 86.0832 70.9375 91.8125L72.9375 91.8125C72.9375 85.8543 71.902 80.6391 69.7941 76.1964L67.9872 77.0537ZM70.9375 91.8125C70.9375 100.458 68.7325 107.029 64.4527 111.665L65.9223 113.022C70.6425 107.908 72.9375 100.792 72.9375 91.8125L70.9375 91.8125ZM64.455 111.663C60.1469 116.298 54.2449 118.656 46.625 118.656L46.625 120.656C54.6926 120.656 61.1656 118.14 65.92 113.025L64.455 111.663ZM46.625 118.656L2.46875 118.656L2.46875 120.656L46.625 120.656L46.625 118.656ZM3.46875 119.656L3.46875 105.172L1.46875 105.172L1.46875 119.656L3.46875 119.656ZM2.46875 106.172L44.4219 106.172L44.4219 104.172L2.46875 104.172L2.46875 106.172ZM44.4219 106.172C49.8032 106.172 53.9658 105.095 56.6992 102.742L55.3945 101.226C53.1905 103.124 49.6031 104.172 44.4219 104.172L44.4219 106.172ZM56.6992 102.742C59.4809 100.348 60.75 96.486 60.75 91.4375L58.75 91.4375C58.75 96.2015 57.5503 99.3708 55.3945 101.226L56.6992 102.742ZM60.75 91.4375C60.75 86.5329 59.4746 82.756 56.6992 80.3671L55.3945 81.8829C57.5567 83.744 58.75 86.8421 58.75 91.4375L60.75 91.4375ZM56.7 80.3678C53.9362 77.9839 49.7431 76.8906 44.3281 76.8906L44.3281 78.8906C49.5382 78.8906 53.1576 79.9536 55.3937 81.8822L56.7 80.3678ZM44.3281 76.8906L2.46875 76.8906L2.46875 78.8906L44.3281 78.8906L44.3281 76.8906ZM3.46875 77.8906L3.46875 63.4063L1.46875 63.4063L1.46875 77.8906L3.46875 77.8906ZM71 20.1875L72 20.1875L72 19.1875L71 19.1875L71 20.1875ZM71 34.7188L71 35.7188L72 35.7188L72 34.7188L71 34.7188ZM14.5625 34.7188L14.5625 33.7188L13.5625 33.7188L13.5625 34.7188L14.5625 34.7188ZM14.5625 53.3281L14.5625 54.3281L15.5625 54.3281L15.5625 53.3281L14.5625 53.3281ZM2.46875 53.3281L1.46875 53.3281L1.46875 54.3281L2.46875 54.3281L2.46875 53.3281ZM2.46875 1.57813L2.46875 0.578125L1.46875 0.578125L1.46875 1.57813L2.46875 1.57813ZM14.5625 1.57813L15.5625 1.57813L15.5625 0.578126L14.5625 0.578125L14.5625 1.57813ZM14.5625 20.1875L13.5625 20.1875L13.5625 21.1875L14.5625 21.1875L14.5625 20.1875ZM70 20.1875L70 34.7188L72 34.7188L72 20.1875L70 20.1875ZM71 33.7188L14.5625 33.7188L14.5625 35.7188L71 35.7188L71 33.7188ZM13.5625 34.7188L13.5625 53.3281L15.5625 53.3281L15.5625 34.7188L13.5625 34.7188ZM14.5625 52.3281L2.46875 52.3281L2.46875 54.3281L14.5625 54.3281L14.5625 52.3281ZM3.46875 53.3281L3.46875 1.57813L1.46875 1.57813L1.46875 53.3281L3.46875 53.3281ZM2.46875 2.57813L14.5625 2.57813L14.5625 0.578125L2.46875 0.578125L2.46875 2.57813ZM13.5625 1.57813L13.5625 20.1875L15.5625 20.1875L15.5625 1.57813L13.5625 1.57813ZM14.5625 21.1875L71 21.1875L71 19.1875L14.5625 19.1875L14.5625 21.1875Z" fill="url(#paint0_linear)"/>
<defs>
<linearGradient id="paint0_linear" x1="46.9444" y1="377.728" x2="467.39" y2="-287.05" gradientUnits="userSpaceOnUse">
<stop stop-color="#40BA93"/>
<stop offset="1" stop-opacity="0"/>
</linearGradient>
</defs>
</svg>
