<svg width="19" height="22" viewBox="0 0 19 22" fill="none" xmlns="http://www.w3.org/2000/svg">
<path d="M16.7749 0H2.22515C1.93219 0.000759311 1.64224 0.0599736 1.37187 0.174262C1.1015 0.28855 0.855991 0.455674 0.649367 0.666092C0.442743 0.87651 0.27905 1.1261 0.167632 1.40061C0.056215 1.67513 -0.000744034 1.96918 7.33787e-06 2.266V17.138C7.33787e-06 18.392 0.998864 19.404 2.22515 19.404H14.5371L13.96 17.3673L15.3509 18.6768L16.664 19.9088L19 22V2.266C19.0007 1.96918 18.9438 1.67513 18.8324 1.40061C18.7209 1.1261 18.5573 0.87651 18.3506 0.666092C18.144 0.455674 17.8985 0.28855 17.6281 0.174262C17.3578 0.0599736 17.0678 0.000759311 16.7749 0ZM12.5829 14.366C12.5829 14.366 12.192 13.8936 11.8674 13.4733C13.2891 13.0657 13.832 12.1648 13.832 12.1648C13.3863 12.4613 12.9634 12.672 12.5829 12.8156C11.1974 13.4031 9.67157 13.5634 8.19657 13.2764C7.65155 13.168 7.1175 13.009 6.60114 12.8017C6.32882 12.6969 6.06416 12.5727 5.80915 12.43C5.776 12.4057 5.744 12.3964 5.712 12.3744C5.69488 12.3662 5.67969 12.3543 5.66743 12.3397C5.472 12.2308 5.36343 12.1544 5.36343 12.1544C5.36343 12.1544 5.88457 13.0344 7.264 13.4524C6.93829 13.8693 6.536 14.366 6.536 14.366C4.13715 14.2884 3.22629 12.694 3.22629 12.694C3.22629 9.152 4.78972 6.28158 4.78972 6.28158C6.35315 5.09242 7.84 5.126 7.84 5.126L7.94857 5.258C5.99429 5.83116 5.09257 6.69958 5.09257 6.69958C5.09257 6.69958 5.33257 6.56758 5.73372 6.38116C6.89486 5.86474 7.81714 5.72116 8.19771 5.68758C8.26286 5.67716 8.31771 5.66558 8.38286 5.66558C10.2654 5.40855 12.1796 5.77102 13.8434 6.69958C13.8434 6.69958 12.9851 5.87516 11.1394 5.30316L11.2914 5.12716C11.2914 5.12716 12.7794 5.09358 14.3417 6.28274C14.3417 6.28274 15.9051 9.15316 15.9051 12.6952C15.9051 12.694 14.9829 14.2884 12.5829 14.366Z" fill="white" fill-opacity="0.6"/>
<path d="M7.25495 9C6.55301 9 6 9.45024 6 10C6 10.5479 6.56596 11 7.25495 11C7.9556 11 8.5086 10.5479 8.5086 10C8.52285 9.44929 7.9556 9 7.25495 9ZM11.7463 9C11.0444 9 10.4914 9.45024 10.4914 10C10.4914 10.5479 11.0574 11 11.7463 11C12.447 11 13 10.5479 13 10C12.9987 9.44929 12.447 9 11.7463 9Z" fill="white" fill-opacity="0.6"/>
</svg>
