<svg width="18" height="20" viewBox="0 0 18 20" fill="none" xmlns="http://www.w3.org/2000/svg">
<path d="M4.37305 11.25C4.20729 11.25 4.04832 11.3158 3.93111 11.4331C3.8139 11.5503 3.74805 11.7092 3.74805 11.875V14.375C3.74805 14.5408 3.8139 14.6997 3.93111 14.8169C4.04832 14.9342 4.20729 15 4.37305 15C4.53881 15 4.69778 14.9342 4.81499 14.8169C4.9322 14.6997 4.99805 14.5408 4.99805 14.375V14.1675H5.4143C5.80118 14.1675 6.17222 14.0138 6.44579 13.7402C6.71936 13.4667 6.87305 13.0956 6.87305 12.7087C6.87305 12.3219 6.71936 11.9508 6.44579 11.6773C6.17222 11.4037 5.80118 11.25 5.4143 11.25H4.37305ZM5.4143 12.9175H4.99805V12.5H5.4143C5.46966 12.5 5.52276 12.522 5.56191 12.5611C5.60105 12.6003 5.62305 12.6534 5.62305 12.7087C5.62305 12.7641 5.60105 12.8172 5.56191 12.8564C5.52276 12.8955 5.46966 12.9175 5.4143 12.9175Z" fill="white"/>
<path d="M11.248 11.875C11.248 11.7092 11.3139 11.5503 11.4311 11.4331C11.5483 11.3158 11.7073 11.25 11.873 11.25H13.1218C13.2876 11.25 13.4465 11.3158 13.5637 11.4331C13.6809 11.5503 13.7468 11.7092 13.7468 11.875C13.7468 12.0408 13.6809 12.1997 13.5637 12.3169C13.4465 12.4342 13.2876 12.5 13.1218 12.5H12.498V12.9188H13.1218C13.2876 12.9188 13.4465 12.9846 13.5637 13.1018C13.6809 13.219 13.7468 13.378 13.7468 13.5438C13.7468 13.7095 13.6809 13.8685 13.5637 13.9857C13.4465 14.1029 13.2876 14.1688 13.1218 14.1688H12.498V14.3737C12.4982 14.4558 12.4822 14.5371 12.4509 14.613C12.4197 14.6889 12.3738 14.7579 12.3159 14.8161C12.1989 14.9335 12.0401 14.9997 11.8743 15C11.7085 15.0003 11.5494 14.9348 11.432 14.8178C11.3145 14.7008 11.2484 14.542 11.248 14.3763V13.5425L11.2505 11.8737L11.248 11.875Z" fill="white"/>
<path d="M8.12305 11.25C7.95729 11.25 7.79832 11.3158 7.68111 11.4331C7.5639 11.5503 7.49805 11.7092 7.49805 11.875V14.375C7.49805 14.5408 7.5639 14.6997 7.68111 14.8169C7.79832 14.9342 7.95729 15 8.12305 15H8.7493C9.24658 15 9.72349 14.8025 10.0751 14.4508C10.4268 14.0992 10.6243 13.6223 10.6243 13.125C10.6243 12.6277 10.4268 12.1508 10.0751 11.7992C9.72349 11.4475 9.24658 11.25 8.7493 11.25H8.12305ZM8.74805 13.75V12.5H8.7493C8.91506 12.5 9.07403 12.5658 9.19124 12.6831C9.30845 12.8003 9.3743 12.9592 9.3743 13.125C9.3743 13.2908 9.30845 13.4497 9.19124 13.5669C9.07403 13.6842 8.91506 13.75 8.7493 13.75H8.74805Z" fill="white"/>
<path d="M8.74875 5.625V0H3.12375C2.62647 0 2.14956 0.197544 1.79792 0.549175C1.44629 0.900806 1.24875 1.37772 1.24875 1.875V8.8525C0.883462 8.98194 0.567257 9.22139 0.343636 9.53791C0.120014 9.85442 -3.62624e-05 10.2325 8.21634e-09 10.62V15.6237C-3.62624e-05 16.0113 0.120014 16.3893 0.343636 16.7058C0.567257 17.0224 0.883462 17.2618 1.24875 17.3913V18.125C1.24875 18.6223 1.44629 19.0992 1.79792 19.4508C2.14956 19.8025 2.62647 20 3.12375 20H14.3738C14.871 20 15.3479 19.8025 15.6996 19.4508C16.0512 19.0992 16.2488 18.6223 16.2488 18.125V17.3913C16.614 17.2618 16.9302 17.0224 17.1539 16.7058C17.3775 16.3893 17.4975 16.0113 17.4975 15.6237V10.62C17.4975 10.2325 17.3775 9.85442 17.1539 9.53791C16.9302 9.22139 16.614 8.98194 16.2488 8.8525V7.5H10.6238C10.1265 7.5 9.64956 7.30246 9.29792 6.95083C8.94629 6.59919 8.74875 6.12228 8.74875 5.625ZM1.875 9.995H15.6238C15.7895 9.995 15.9485 10.0608 16.0657 10.1781C16.1829 10.2953 16.2488 10.4542 16.2488 10.62V15.6237C16.2488 15.7895 16.1829 15.9485 16.0657 16.0657C15.9485 16.1829 15.7895 16.2487 15.6238 16.2487H1.87375C1.70799 16.2487 1.54902 16.1829 1.43181 16.0657C1.3146 15.9485 1.24875 15.7895 1.24875 15.6237V10.62C1.24875 10.4542 1.3146 10.2953 1.43181 10.1781C1.54902 10.0608 1.70799 9.995 1.87375 9.995H1.875Z" fill="white"/>
<path d="M9.99805 5.625V0.3125L15.9355 6.25H10.623C10.4573 6.25 10.2983 6.18415 10.1811 6.06694C10.0639 5.94973 9.99805 5.79076 9.99805 5.625Z" fill="white"/>
</svg>
