<svg width="24" height="23" viewBox="0 0 24 23" fill="none" xmlns="http://www.w3.org/2000/svg">
<path d="M19.9587 19.3858H16.5941V14.1063C16.5941 12.8473 16.5678 11.2294 14.8346 11.2294C13.0802 11.2294 12.8129 12.595 12.8129 14.0131V19.3851H9.44403V8.52958H12.68V10.0103H12.7233C13.1754 9.15513 14.2752 8.2559 15.9159 8.2559C19.3288 8.2559 19.9622 10.5029 19.9622 13.4245V19.3851L19.9587 19.3858ZM5.63798 7.04602C5.38084 7.04611 5.12621 6.99548 4.88867 6.89701C4.65112 6.79854 4.43534 6.65418 4.25368 6.4722C4.07202 6.29021 3.92804 6.07417 3.83001 5.83646C3.73197 5.59875 3.68179 5.34403 3.68236 5.08689C3.68278 4.69987 3.79795 4.32166 4.01331 4.00008C4.22868 3.67851 4.53456 3.42801 4.89228 3.28026C5.25001 3.13251 5.64351 3.09414 6.02304 3.17001C6.40257 3.24587 6.75108 3.43257 7.02451 3.70648C7.29793 3.9804 7.484 4.32924 7.55918 4.70889C7.63436 5.08855 7.59528 5.48197 7.44687 5.83941C7.29847 6.19686 7.04741 6.50227 6.72543 6.71704C6.40345 6.93182 6.02502 7.0463 5.63798 7.04602ZM7.32561 19.3858H3.94965V8.53029H7.32561V19.3858ZM21.6477 0H2.25775C1.33148 0 0.580078 0.732894 0.580078 1.63995V21.1082C0.580078 22.0152 1.33148 22.7481 2.25775 22.7481H21.6441C22.569 22.7481 23.3282 22.0152 23.3282 21.1082V1.63995C23.3282 0.732894 22.569 0 21.6441 0H21.6477Z" fill="#BDBDBD"/>
</svg>
