<svg width="234" height="234" viewBox="0 0 234 234" fill="none" xmlns="http://www.w3.org/2000/svg">
<path d="M169.214 167.388L133.165 38.2158L133.109 38H120.715L120.63 38.3096L85.7453 167.397L84 173.862L90.0895 177.258L95.1936 180.074L96.3571 176.123L96.9857 173.993L99.4816 165.633L108.273 131.386H145.363L154.436 163.119L157.457 173.74L157.579 174.135L159.306 180.186L160.45 179.538L164.4 177.352L170.968 173.665L169.214 167.388ZM111.585 119.855L114.616 109.205C118.153 96.8109 122.178 81.8173 126.813 63.6335H127.142C131.542 81.5733 135.474 96.5858 139.058 109.215L142.135 119.855H111.585Z" fill="#40BA93"/>
<path d="M195.221 162.352L195.849 163.23C194.946 164.354 194.006 165.446 193.029 166.505C192.448 167.185 191.834 167.846 191.226 168.489C190.616 169.132 189.983 169.788 189.352 170.406C189.029 170.737 188.706 171.039 188.386 171.361L187.564 172.112C187.228 172.421 186.9 172.741 186.558 173.038L185.67 173.849L184.767 173.267L188.562 169.291L195.221 162.352Z" fill="#40BA93"/>
<path d="M162.02 187.834L175.308 180.583L180.069 195.225L171.764 199.76L162.02 187.834Z" fill="#40BA93"/>
<path d="M184.602 172.6L195.007 161.606L204.051 174.066L197.548 180.942L184.602 172.6Z" fill="#40BA93"/>
<path d="M201.25 151.387L207.803 137.741L220.218 146.846L216.125 155.378L201.25 151.387Z" fill="#40BA93"/>
<path d="M210.672 125.887L212.708 110.887L227.323 115.73L226.053 125.107L210.672 125.887Z" fill="#40BA93"/>
<path d="M211.754 98.3579L209.013 83.4705L224.409 83.5168L226.126 92.8229L211.754 98.3579Z" fill="#40BA93"/>
<path d="M135.917 194.729L150.777 191.873L150.849 207.269L141.559 209.054L135.917 194.729Z" fill="#40BA93"/>
<path d="M108.957 193.334L123.984 195.146L119.351 209.826L109.959 208.698L108.957 193.334Z" fill="#40BA93"/>
<path d="M83.7059 183.781L97.4604 190.089L88.5753 202.657L79.9746 198.721L83.7059 183.781Z" fill="#40BA93"/>
<path d="M62.5719 166.985L73.7483 177.187L61.4456 186.451L54.461 180.072L62.5719 166.985Z" fill="#40BA93"/>
<path d="M47.564 144.546L55.0929 157.666L40.562 162.739L35.8521 154.541L47.564 144.546Z" fill="#40BA93"/>
<path d="M40.1116 118.597L43.2882 133.387L27.8914 133.788L25.9097 124.544L40.1116 118.597Z" fill="#40BA93"/>
<path d="M40.9233 91.6046L39.4341 106.66L24.6582 102.351L25.5858 92.9443L40.9233 91.6046Z" fill="#40BA93"/>
<path d="M49.9361 66.1616L43.9239 80.044L31.1663 71.4288L34.9197 62.75L49.9361 66.1616Z" fill="#40BA93"/>
<path d="M66.2753 44.6612L56.315 56.0583L46.7908 43.9677L53.0126 36.8437L66.2753 44.6612Z" fill="#40BA93"/>
<path d="M88.3847 29.1781L75.4305 36.9941L70.047 22.5736L78.1475 17.6823L88.3847 29.1781Z" fill="#40BA93"/>
<path d="M114.172 21.1764L99.4446 24.661L98.7176 9.28427L107.917 7.10655L114.172 21.1764Z" fill="#40BA93"/>
<path d="M141.17 21.4158L126.077 20.2479L130.071 5.37698L139.502 6.10747L141.17 21.4158Z" fill="#40BA93"/>
<path d="M166.803 29.8683L152.79 24.1618L161.135 11.2146L169.893 14.7848L166.803 29.8683Z" fill="#40BA93"/>
<path d="M188.64 45.7445L177.042 36.0309L188.929 26.2481L196.18 32.3195L188.64 45.7445Z" fill="#40BA93"/>
<path d="M204.602 67.5253L196.51 54.7296L210.816 49.0438L215.874 57.0334L204.602 67.5253Z" fill="#40BA93"/>
<path d="M210.457 78.4095C211.258 80.5659 211.96 82.8425 212.548 85.1085C213.135 87.3741 213.722 89.8236 214.167 92.2251C214.198 92.3544 214.218 92.4866 214.226 92.6199L214.079 92.6972L213.157 93.1297L212.975 92.43L211.228 85.6781L209.358 78.4842L210.35 78.4094L210.457 78.4095Z" fill="#40BA93"/>
<path d="M217 109.5C217 158.929 176.929 199 127.5 199C78.0705 199 38 158.929 38 109.5C38 60.0705 78.0705 20 127.5 20C176.929 20 217 60.0705 217 109.5ZM55.9339 109.5C55.9339 149.025 87.9752 181.066 127.5 181.066C167.025 181.066 199.066 149.025 199.066 109.5C199.066 69.9752 167.025 37.9339 127.5 37.9339C87.9752 37.9339 55.9339 69.9752 55.9339 109.5Z" fill="#40BA93"/>
</svg>
