<svg width="21" height="21" viewBox="0 0 21 21" fill="none" xmlns="http://www.w3.org/2000/svg">
<path d="M20.16 0H0.84C0.375375 0 0 0.375375 0 0.84V20.16C0 20.6246 0.375375 21 0.84 21H20.16C20.6246 21 21 20.6246 21 20.16V0.84C21 0.375375 20.6246 0 20.16 0ZM17.22 5.39963L16.149 6.426C16.0545 6.49687 16.0099 6.61238 16.0282 6.72525V14.2774C16.0099 14.3929 16.0545 14.5084 16.149 14.5766L17.199 15.603V15.8314H11.928V15.6135L13.0121 14.5609C13.1198 14.4532 13.1197 14.4217 13.1197 14.2616V8.15062L10.101 15.8051H9.69412L6.18187 8.15062V13.2825C6.15037 13.4977 6.2265 13.7156 6.37875 13.8705L7.791 15.5794V15.8077H3.78V15.5794L5.19225 13.8705C5.26666 13.7936 5.32203 13.7004 5.35394 13.5983C5.38585 13.4962 5.3934 13.3881 5.376 13.2825V7.35C5.39437 7.18462 5.33137 7.0245 5.20537 6.91162L3.95062 5.39963V5.17125H7.84875L10.857 11.7731L13.5056 5.1765H17.22V5.39963Z" fill="white" fill-opacity="0.6"/>
</svg>
