<svg width="20" height="15" viewBox="0 0 20 15" fill="none" xmlns="http://www.w3.org/2000/svg">
<path d="M19.2857 0H0.714286C0.524845 0 0.343164 0.0718343 0.209209 0.1997C0.0752549 0.327566 0 0.500989 0 0.681818V14.3182C0 14.499 0.0752549 14.6724 0.209209 14.8003C0.343164 14.9282 0.524845 15 0.714286 15H19.2857C19.4752 15 19.6568 14.9282 19.7908 14.8003C19.9247 14.6724 20 14.499 20 14.3182V0.681818C20 0.500989 19.9247 0.327566 19.7908 0.1997C19.6568 0.0718343 19.4752 0 19.2857 0ZM10.4384 8.72003C10.313 8.81305 10.1588 8.86355 10 8.86355C9.84122 8.86355 9.68696 8.81305 9.56161 8.72003L2.5692 3.52884L3.44598 2.45241L10 7.31804L16.554 2.45241L17.4308 3.52884L10.4384 8.72003Z" fill="white" fill-opacity="0.6"/>
</svg>
